HIERARCHY
ROOT Hips
{
	OFFSET 55.310501 45.591206 43.872097
	CHANNELS 6 Xposition Yposition Zposition Zrotation Xrotation Yrotation
	JOINT Chest
	{
		OFFSET -0.153500 1.163101 7.852402
		CHANNELS 6 Xposition Yposition Zposition Zrotation Xrotation Yrotation
		JOINT Chest2
		{
			OFFSET 0.000000 0.000000 3.343300
			CHANNELS 6 Xposition Yposition Zposition Zrotation Xrotation Yrotation
			JOINT Neck
			{
				OFFSET 0.000000 0.000000 7.785500
				CHANNELS 6 Xposition Yposition Zposition Zrotation Xrotation Yrotation
				JOINT Head
				{
					OFFSET 0.000000 0.000000 2.173901
					CHANNELS 6 Xposition Yposition Zposition Zrotation Xrotation Yrotation
					End Site
					{
						OFFSET 0.000000 0.000000 10.528198
					}
				}
			}
			JOINT LeftCollar
			{
				OFFSET 2.676300 -1.652401 4.938301
				CHANNELS 6 Xposition Yposition Zposition Zrotation Xrotation Yrotation
				JOINT LeftShoulder
				{
					OFFSET 4.299000 0.000000 0.000000
					CHANNELS 6 Xposition Yposition Zposition Zrotation Xrotation Yrotation
					JOINT LeftElbow
					{
						OFFSET 0.000000 0.000000 -10.245102
						CHANNELS 6 Xposition Yposition Zposition Zrotation Xrotation Yrotation
						JOINT LeftWrist
						{
							OFFSET 0.000000 0.000000 -12.703300
							CHANNELS 6 Xposition Yposition Zposition Zrotation Xrotation Yrotation
							End Site
							{
								OFFSET 0.000000 0.000000 -2.173901
							}
						}
					}
				}
			}
			JOINT RightCollar
			{
				OFFSET -2.534599 -1.686401 5.195000
				CHANNELS 6 Xposition Yposition Zposition Zrotation Xrotation Yrotation
				JOINT RightShoulder
				{
					OFFSET -4.144100 0.000000 0.000000
					CHANNELS 6 Xposition Yposition Zposition Zrotation Xrotation Yrotation
					JOINT RightElbow
					{
						OFFSET 0.000000 0.000000 -10.116501
						CHANNELS 6 Xposition Yposition Zposition Zrotation Xrotation Yrotation
						JOINT RightWrist
						{
							OFFSET 0.000000 0.000000 -12.937801
							CHANNELS 6 Xposition Yposition Zposition Zrotation Xrotation Yrotation
							End Site
							{
								OFFSET 0.000000 0.000000 -2.173901
							}
						}
					}
				}
			}
		}
	}
	JOINT LeftHip
	{
		OFFSET 2.175598 0.064499 -2.662899
		CHANNELS 6 Xposition Yposition Zposition Zrotation Xrotation Yrotation
		JOINT LeftKnee
		{
			OFFSET 0.000000 -0.000004 -18.585800
			CHANNELS 6 Xposition Yposition Zposition Zrotation Xrotation Yrotation
			JOINT LeftAnkle
			{
				OFFSET 0.000000 0.000000 -18.979500
				CHANNELS 6 Xposition Yposition Zposition Zrotation Xrotation Yrotation
				End Site
				{
					OFFSET 0.000000 -9.264000 0.000000
				}
			}
		}
	}
	JOINT RightHip
	{
		OFFSET -2.092400 -0.058102 -2.581200
		CHANNELS 6 Xposition Yposition Zposition Zrotation Xrotation Yrotation
		JOINT RightKnee
		{
			OFFSET 0.000000 -0.000004 -18.665001
			CHANNELS 6 Xposition Yposition Zposition Zrotation Xrotation Yrotation
			JOINT RightAnkle
			{
				OFFSET 0.000000 0.000000 -18.566601
				CHANNELS 6 Xposition Yposition Zposition Zrotation Xrotation Yrotation
				End Site
				{
					OFFSET 0.000000 -8.497601 0.000000
				}
			}
		}
	}
}
MOTION
Frames: 4
Frame Time: 0.041667
46.771599 60.901299 17.727491 8.565771 21.284235 2.232712 -0.153504 1.163108 7.852404 -7.462890 16.894529 3.859576 0.000007 -0.000003 3.343309 0.288881 -10.285272 0.092020 0.000001 0.000003 7.785504 35.954392 -6.263879 -1.830628 0.000001 -0.000004 2.173903 3.381726 -3.340637 4.221538 2.676297 -1.652398 4.938306 4.129856 2.299883 11.431913 4.299002 -0.000004 -0.000008 -53.705535 -16.005633 -115.153711 -0.000001 -0.000008 -10.245100 20.068141 -22.623661 1.265724 -0.000009 0.000013 -12.703301 -27.704253 -4.703378 2.080038 -2.534598 -1.686400 5.195004 9.144203 11.907861 0.981745 -4.144108 0.000006 0.000005 -1.469729 9.935647 58.998436 0.000002 0.000009 -10.116498 -65.120786 -1.546569 3.695497 -0.000002 0.000008 -12.937799 23.474279 -6.665779 36.117409 2.175594 0.064507 -2.662894 125.676150 -23.675042 112.977285 -0.000007 -0.000001 -18.585808 -10.098478 -164.138653 -39.691145 -0.000003 -0.000000 -18.979506 52.372244 -13.723572 17.305343 -2.092398 -0.058096 -2.581198 -147.539135 2.294778 -115.046040 0.000006 0.000003 -18.665007 -9.942737 211.323171 57.342116 -0.000009 0.000001 -18.566597 -83.364802 -9.588576 -62.832351
46.722404 60.934708 17.806194 9.170834 21.462413 2.163727 -0.153499 1.163101 7.852402 -7.985190 17.130575 4.040377 0.000004 -0.000006 3.343304 1.123527 -10.290472 0.190004 -0.000009 0.000007 7.785505 35.372372 -6.192400 -1.472250 0.000003 -0.000004 2.173912 3.272025 -3.419901 4.141133 2.676293 -1.652391 4.938305 4.060792 2.354837 11.316529 4.299007 0.000000 -0.000001 -54.495153 -16.315095 -115.284249 -0.000003 0.000002 -10.245109 19.833454 -22.938427 1.287648 -0.000010 0.000002 -12.703298 -27.699779 -4.708574 2.111461 -2.534600 -1.686395 5.195000 9.063087 11.705536 1.030173 -4.144111 -0.000002 0.000002 -0.033800 11.895516 57.773715 0.000002 0.000005 -10.116499 -64.397687 -1.445868 3.741382 0.000000 0.000004 -12.937799 20.177547 -6.409962 35.607262 2.175598 0.064505 -2.662891 125.593682 -24.005885 113.306766 -0.000012 -0.000008 -18.585804 -9.766700 -164.491664 -40.196237 0.000003 0.000008 -18.979496 52.248990 -13.902529 17.059654 -2.092396 -0.058096 -2.581195 -147.471885 2.161118 -115.003447 0.000006 -0.000007 -18.665005 -9.924618 211.364807 57.311544 -0.000011 0.000003 -18.566605 -84.030526 -9.740000 -62.804389
46.673004 60.967903 17.887192 9.849607 21.693133 2.108714 -0.153498 1.163101 7.852407 -8.568834 17.263100 4.197394 -0.000004 0.000008 3.343305 1.903182 -10.292643 0.275989 -0.000005 0.000007 7.785507 34.712404 -6.105585 -1.120469 0.000001 0.000006 2.173911 3.357527 -3.498928 4.078687 2.676293 -1.652394 4.938305 3.882932 2.603720 11.291121 4.299006 0.000004 -0.000004 -55.178476 -16.583144 -115.603028 -0.000001 0.000011 -10.245117 19.614949 -23.276416 1.276618 0.000001 0.000009 -12.703298 -27.667261 -4.712836 2.140275 -2.534595 -1.686393 5.195004 9.325622 11.882391 0.900773 -4.144102 0.000005 -0.000005 1.265408 13.354531 56.546347 -0.000002 0.000001 -10.116494 -63.617830 -1.333099 3.902328 -0.000001 -0.000002 -12.937807 16.976949 -6.335841 34.304991 2.175594 0.064498 -2.662895 125.432640 -24.221347 113.677065 -0.000008 -0.000002 -18.585804 -9.495916 -164.774461 -40.695234 0.000001 0.000004 -18.979504 52.336960 -15.523664 22.178575 -2.092396 -0.058103 -2.581200 -147.483769 2.157387 -114.915515 0.000005 -0.000009 -18.664997 -9.912595 211.549769 57.300882 -0.000005 0.000004 -18.566595 -84.844009 -9.839478 -62.840425
46.624199 61.000404 17.970287 10.575690 21.991210 2.037687 -0.153504 1.163108 7.852400 -9.198879 17.310242 4.388552 0.000005 0.000002 3.343294 2.594574 -10.308724 0.346727 -0.000000 0.000004 7.785497 34.131234 -6.089132 -0.857918 -0.000000 0.000008 2.173912 3.339625 -3.541725 4.030062 2.676288 -1.652404 4.938299 3.752072 2.941557 11.286623 4.299005 -0.000006 -0.000003 -55.863649 -16.852568 -116.030639 0.000001 -0.000008 -10.245110 19.376857 -23.626367 1.288119 -0.000001 0.000012 -12.703302 -27.638437 -4.720008 2.145178 -2.534606 -1.686403 5.195000 9.826177 12.334234 0.643045 -4.144104 0.000009 -0.000003 2.211560 14.589590 55.507937 0.000001 -0.000009 -10.116505 -58.540390 -1.052561 3.863732 -0.000000 0.000000 -12.937801 9.718452 -5.519181 33.507498 2.175596 0.064505 -2.662899 125.223117 -24.275648 114.068619 -0.000009 -0.000005 -18.585806 -9.317567 -165.022671 -41.204219 -0.000002 0.000003 -18.979506 52.384245 -16.082546 23.648010 -2.092403 -0.058098 -2.581204 -147.558751 2.195866 -114.848224 0.000006 -0.000006 -18.665001 -9.873610 211.624382 57.329336 -0.000003 0.000003 -18.566601 -85.530948 -9.876650 -62.792340
